<svg width="13" height="13" viewBox="0 0 13 13" fill="none" xmlns="http://www.w3.org/2000/svg">
<g clip-path="url(#clip0_1_284)">
<path d="M5.33375 9.266V5.2655H4.859C4.51934 5.44738 4.19077 5.64923 3.875 5.87V6.39125C4.15625 6.1985 4.60175 5.92625 4.8185 5.8085H4.8275V9.266H5.33375ZM6.22475 8.28725C6.26 8.76725 6.67025 9.34175 7.502 9.34175C8.4455 9.34175 9.002 8.54225 9.002 7.1885C9.002 5.738 8.41625 5.1875 7.53725 5.1875C6.84275 5.1875 6.1895 5.6915 6.1895 6.54425C6.1895 7.41425 6.8075 7.87175 7.4465 7.87175C8.006 7.87175 8.369 7.58975 8.48375 7.27925H8.504C8.501 8.26625 8.15825 8.90225 7.52525 8.90225C7.02725 8.90225 6.76925 8.56475 6.73775 8.28725H6.22475ZM8.4395 6.5495C8.4395 7.0715 8.02025 7.4345 7.5515 7.4345C7.10075 7.4345 6.6935 7.14725 6.6935 6.5345C6.6935 5.91725 7.13 5.627 7.5695 5.627C8.04425 5.627 8.4395 5.9255 8.4395 6.5495Z" fill="#484848" fill-opacity="0.5"/>
<path d="M3.125 0.5C3.22446 0.5 3.31984 0.539509 3.39016 0.609835C3.46049 0.680161 3.5 0.775544 3.5 0.875V1.25H9.5V0.875C9.5 0.775544 9.53951 0.680161 9.60983 0.609835C9.68016 0.539509 9.77554 0.5 9.875 0.5C9.97446 0.5 10.0698 0.539509 10.1402 0.609835C10.2105 0.680161 10.25 0.775544 10.25 0.875V1.25H11C11.3978 1.25 11.7794 1.40804 12.0607 1.68934C12.342 1.97064 12.5 2.35218 12.5 2.75V11C12.5 11.3978 12.342 11.7794 12.0607 12.0607C11.7794 12.342 11.3978 12.5 11 12.5H2C1.60218 12.5 1.22064 12.342 0.93934 12.0607C0.658035 11.7794 0.5 11.3978 0.5 11V2.75C0.5 2.35218 0.658035 1.97064 0.93934 1.68934C1.22064 1.40804 1.60218 1.25 2 1.25H2.75V0.875C2.75 0.775544 2.78951 0.680161 2.85984 0.609835C2.93016 0.539509 3.02554 0.5 3.125 0.5ZM1.25 3.5V11C1.25 11.1989 1.32902 11.3897 1.46967 11.5303C1.61032 11.671 1.80109 11.75 2 11.75H11C11.1989 11.75 11.3897 11.671 11.5303 11.5303C11.671 11.3897 11.75 11.1989 11.75 11V3.5H1.25Z" fill="#484848" fill-opacity="0.5"/>
</g>
<defs>
<clipPath id="clip0_1_284">
<rect width="12" height="12" fill="white" transform="translate(0.5 0.5)"/>
</clipPath>
</defs>
</svg>
