<svg width="12" height="18" viewBox="0 0 12 18" fill="none" xmlns="http://www.w3.org/2000/svg">
<path d="M1.05212 8.36501L0.89931 8.02412C0.823689 7.83799 0.757211 7.64727 0.702335 7.45131C0.571165 6.98488 0.500004 6.49294 0.500004 5.98513C0.500004 2.95529 3.00137 0.5 6.08603 0.5C9.17098 0.5 11.6714 2.95529 11.6714 5.98513C11.6714 6.49297 11.6005 6.9849 11.4691 7.45131C11.416 7.63832 11.354 7.82118 11.2822 7.99947L11.1131 8.37718L6.0863 17.5L1.05212 8.36501ZM10.701 8.20154L10.8639 7.83864C10.9292 7.67626 10.9868 7.50669 11.0354 7.3345C11.1585 6.89706 11.2214 6.44286 11.2214 5.98511C11.2214 3.2029 8.91704 0.939156 6.08576 0.939156C3.25449 0.939156 0.950085 3.20307 0.950085 5.98511C0.950085 6.44281 1.01299 6.89705 1.13613 7.33534C1.18655 7.51363 1.24767 7.69104 1.31147 7.84841L1.44821 8.15682L6.08665 16.5744L10.701 8.20154Z" fill="#3E3E3E" stroke="#3E3E3E" stroke-width="0.3"/>
<path d="M6.08615 3.50842C7.4509 3.50842 8.55696 4.59518 8.55696 5.93492C8.55696 7.2745 7.45005 8.3621 6.08529 8.3621C4.72054 8.3621 3.61362 7.27534 3.61362 5.93492C3.61362 4.59429 4.72139 3.50842 6.08621 3.50842H6.08615ZM6.08615 7.92269C7.2002 7.92269 8.10747 7.03122 8.10747 5.93492C8.10747 4.83862 7.2002 3.94693 6.08529 3.94693C4.97038 3.94693 4.06311 4.83857 4.06311 5.93492C4.06334 7.03122 4.97124 7.92269 6.08621 7.92269H6.08615Z" fill="#3E3E3E" stroke="#3E3E3E" stroke-width="0.3"/>
</svg>
