<svg width="56" height="56" viewBox="0 0 56 56" fill="none" xmlns="http://www.w3.org/2000/svg">
<rect x="0.5" y="0.5" width="55" height="55" rx="27.5" fill="#FF8000"/>
<path d="M34.1137 31.5148C35.5661 29.5326 36.2166 27.0751 35.9351 24.6338C35.6536 22.1926 34.4608 19.9476 32.5954 18.3482C30.73 16.7487 28.3295 15.9126 25.8742 16.0072C23.419 16.1019 21.09 17.1202 19.3531 18.8585C17.6163 20.5968 16.5998 22.9269 16.507 25.3825C16.4141 27.8382 17.2518 30.2384 18.8524 32.1029C20.453 33.9675 22.6984 35.1588 25.1396 35.4386C27.5807 35.7184 30.0374 35.066 32.0183 33.612H32.0168C32.0608 33.672 32.1098 33.7296 32.1638 33.7846L37.9385 39.5602C38.2198 39.8416 38.6013 39.9999 38.9992 40C39.3971 40.0001 39.7788 39.8422 40.0602 39.5609C40.3417 39.2796 40.4999 38.898 40.5 38.5001C40.5001 38.1021 40.3422 37.7204 40.061 37.4389L34.2862 31.6633C34.2326 31.609 34.1749 31.5604 34.1137 31.5148ZM34.5007 25.7482C34.5007 26.8317 34.2873 27.9047 33.8727 28.9057C33.4581 29.9067 32.8504 30.8163 32.0844 31.5825C31.3183 32.3486 30.4089 32.9564 29.408 33.371C28.4071 33.7857 27.3343 33.9991 26.251 33.9991C25.1676 33.9991 24.0949 33.7857 23.094 33.371C22.0931 32.9564 21.1836 32.3486 20.4176 31.5825C19.6515 30.8163 19.0438 29.9067 18.6293 28.9057C18.2147 27.9047 18.0013 26.8317 18.0013 25.7482C18.0013 23.56 18.8705 21.4613 20.4176 19.914C21.9647 18.3667 24.063 17.4974 26.251 17.4974C28.4389 17.4974 30.5373 18.3667 32.0844 19.914C33.6315 21.4613 34.5007 23.56 34.5007 25.7482Z" fill="#F1F1F1"/>
</svg>
