<svg width="13" height="13" viewBox="0 0 13 13" fill="none" xmlns="http://www.w3.org/2000/svg">
<g clip-path="url(#clip0_1_291)">
<path d="M6.5 3.125C6.5 3.02554 6.46049 2.93016 6.39016 2.85984C6.31984 2.78951 6.22446 2.75 6.125 2.75C6.02554 2.75 5.93016 2.78951 5.85984 2.85984C5.78951 2.93016 5.75 3.02554 5.75 3.125V7.25C5.75002 7.3161 5.76751 7.38102 5.8007 7.43818C5.83389 7.49534 5.8816 7.54272 5.939 7.5755L8.564 9.0755C8.65014 9.12206 8.75108 9.13307 8.84524 9.10619C8.9394 9.07931 9.0193 9.01667 9.06789 8.93165C9.11647 8.84663 9.12987 8.74598 9.10522 8.65122C9.08058 8.55645 9.01984 8.47508 8.936 8.4245L6.5 7.0325V3.125Z" fill="#484848" fill-opacity="0.5"/>
<path d="M6.5 12.5C8.0913 12.5 9.61742 11.8679 10.7426 10.7426C11.8679 9.61742 12.5 8.0913 12.5 6.5C12.5 4.9087 11.8679 3.38258 10.7426 2.25736C9.61742 1.13214 8.0913 0.5 6.5 0.5C4.9087 0.5 3.38258 1.13214 2.25736 2.25736C1.13214 3.38258 0.5 4.9087 0.5 6.5C0.5 8.0913 1.13214 9.61742 2.25736 10.7426C3.38258 11.8679 4.9087 12.5 6.5 12.5ZM11.75 6.5C11.75 7.89239 11.1969 9.22774 10.2123 10.2123C9.22774 11.1969 7.89239 11.75 6.5 11.75C5.10761 11.75 3.77226 11.1969 2.78769 10.2123C1.80312 9.22774 1.25 7.89239 1.25 6.5C1.25 5.10761 1.80312 3.77226 2.78769 2.78769C3.77226 1.80312 5.10761 1.25 6.5 1.25C7.89239 1.25 9.22774 1.80312 10.2123 2.78769C11.1969 3.77226 11.75 5.10761 11.75 6.5Z" fill="#484848" fill-opacity="0.5"/>
</g>
<defs>
<clipPath id="clip0_1_291">
<rect width="12" height="12" fill="white" transform="translate(0.5 0.5)"/>
</clipPath>
</defs>
</svg>
